<svg xmlns="http://www.w3.org/2000/svg" xmlns:xlink="http://www.w3.org/1999/xlink" id="图层_1" data-name="图层 1"
    viewBox="0 0 1451.34 1451.34">
    <defs>
        <style>
            .cls-1,
            .cls-2,
            .cls-3 {
                fill-rule: evenodd;
            }

            .cls-1 {
                fill: url(#GradientFill_4);
            }

            .cls-2 {
                fill: url(#GradientFill_5);
            }

            .cls-3 {
                fill: url(#GradientFill_6);
            }
        </style>
        <linearGradient id="GradientFill_4" x1="-1503.95" y1="1910.08" x2="2339.66" y2="-682.47"
            gradientUnits="userSpaceOnUse">
            <stop offset="0" stop-color="#401d46"></stop>
            <stop offset="0.41" stop-color="#ea5012"></stop>
            <stop offset="1" stop-color="#f8b62d"></stop>
        </linearGradient>
        <linearGradient id="GradientFill_5" x1="140.2" y1="1321.97" x2="1335.31" y2="659.51"
            gradientUnits="userSpaceOnUse">
            <stop offset="0" stop-color="#2e1d4a"></stop>
            <stop offset="1" stop-color="#2ea7e0"></stop>
        </linearGradient>
        <linearGradient id="GradientFill_6" x1="154.26" y1="1417.28" x2="1302.98" y2="48.29"
            gradientUnits="userSpaceOnUse">
            <stop offset="0" stop-color="#2e1d4a"></stop>
            <stop offset="0.36" stop-color="#177b35"></stop>
            <stop offset="1" stop-color="#8fc31f"></stop>
        </linearGradient>
    </defs>
    <title>logo</title>
    <path class="cls-1"
        d="M156,1126.2a42.39,42.39,0,0,1-16.76-10.49,43.13,43.13,0,0,1-6.77-9.17,52.47,52.47,0,0,1-3.17-6.94,57.78,57.78,0,0,1-1.9-6.13c-.46-1.82-.86-3.7-1.18-5.69-.28-1.73-.51-3.51-.68-5.37-.16-1.67-.26-3.39-.33-5.16-.06-1.62-.11-3.27-.08-5s0-3.22.13-4.89c.09-1.51.26-3.13.4-4.71l.51-4.62.62-4.56.8-4.44.86-4.41,1-4.33,1-4.3,1.15-4.23,1.21-4.2,1.28-4.13,1.33-4.12,1.41-4.06,1.42-4,1.54-4,1.52-4,1.61-4,1.64-3.93,1.66-3.89,1.74-3.88,1.74-3.84,1.79-3.84,1.82-3.79,1.84-3.81,1.9-3.76,1.92-3.76,1.91-3.75,2-3.69,2-3.69,2-3.7.33-.62-.28.65-1.65,3.92-1.6,3.93-1.6,3.95-1.53,4-1.53,4-1.45,4-1.43,4.06-1.4,4.07-1.32,4.12-1.28,4.14-1.23,4.18-1.16,4.22-1.11,4.26-1,4.31-1,4.34-.86,4.42-.75,4.45-.67,4.53-.54,4.62-.37,4.7-.22,4.82-.05,3.34,0,1.59c0,1.74.07,3.42.19,5.06.14,1.85.33,3.62.59,5.31a54.79,54.79,0,0,0,1.13,5.65,43.31,43.31,0,0,0,2.15,6.29,30.2,30.2,0,0,0,5.13,8.17,23.18,23.18,0,0,0,11.17,7,28.88,28.88,0,0,0,9.42.92,40.73,40.73,0,0,0,6.4-.94,53.55,53.55,0,0,0,5.38-1.57c1.58-.56,3.18-1.21,4.82-2,1.45-.65,2.93-1.37,4.42-2.18s2.74-1.51,4.12-2.35l3.89-2.53c1.22-.83,2.46-1.69,3.69-2.62l3.54-2.75,3.39-2.83,3.25-2.9,3.15-3,3-3,2.95-3.1.33-.34,2.53-2.82,2.79-3.2,2.73-3.25,2.66-3.27,2.6-3.33,2.52-3.36,2.46-3.41,2.41-3.45,2.37-3.48,2.3-3.5,2.24-3.53,2.2-3.58,2.14-3.6,2.12-3.64,2-3.66,2-3.69,1.95-3.72,1.93-3.74,1.88-3.78,1.83-3.78,1.8-3.83,1.77-3.84,1.7-3.88,1.7-3.9,1.64-3.92,1.62-3.93,1.57-4,1.53-4,1.51-4,1.46-4,1.44-4.05,1.42-4.06,1.35-4.1,1.35-4.11,1.31-4.13,1.28-4.14,1.24-4.18,1.21-4.17,1.19-4.21,1.16-4.22.15-.55,1-3.7,1.11-4.25,1.09-4.28,1.07-4.27,1.05-4.29,1-4.29,1-4.32,1-4.34,1-4.33,1-4.36.93-4.36.93-4.37.88-4.39.88-4.41.85-4.42.83-4.41.82-4.43.78-4.47.78-4.47.75-4.46.75-4.48.71-4.49.69-4.53.69-4.54.66-4.5.64-4.56.64-4.55.62-4.56.6-4.58.57-4.57.56-4.61.55-4.6.54-4.6.52-4.62.51-4.63.5-4.63.47-4.67.47-4.66.46-4.65.45-4.66.45-4.67.42-4.68L332,707l.42-4.69.42-4.7.39-4.7.41-4.71.39-4.69.37-4.7.4-4.71.38-4.69.38-4.73.39-4.7.37-4.7.39-4.72.39-4.7.39-4.69.4-4.71.4-4.69.4-4.71.41-4.69.41-4.68L340,613l.45-4.66.42-4.68.46-4.66.47-4.65.47-4.66.49-4.65.48-4.64.51-4.63.53-4.61.53-4.62.56-4.61.56-4.58.57-4.58.61-4.58.6-4.56.62-4.57.64-4.52.66-4.54.68-4.54.69-4.52.71-4.49.72-4.5.77-4.48.75-4.48.78-4.45.79-4.45.83-4.42.62-3.35.22-1.09.84-4.42.88-4.39.88-4.4.91-4.38.92-4.36.93-4.37.95-4.33,1-4.35,1-4.34,1-4.31,1-4.32,1-4.3,1.06-4.27,1.08-4.3,1.09-4.25,1.12-4.25,1.12-4.25,1.16-4.22,1.16-4.22,1.19-4.21,1.21-4.18,1.24-4.17,1.23-4.17,1.28-4.16,1.29-4.13L385,374l1.32-4.12,1.35-4.09,1.38-4.09,1.41-4.08,1.4-4.05,1.47-4.06,1.46-4,1.46-4,1.53-4,1.53-4,1.57-4,1.59-4,1.61-3.92,1.62-3.95,1.69-3.9,1.69-3.88,1.71-3.87,1.75-3.84,1.78-3.85,1.8-3.81,1.83-3.8,1.87-3.79,1.89-3.74,1.93-3.75,2-3.73,2-3.71,2-3.67,2.08-3.67,2.09-3.61,2.14-3.64,2.17-3.57,2.21-3.56,2.26-3.55,2.29-3.5,2.34-3.49,2.4-3.45,2.42-3.42,2.49-3.4,2.52-3.36,2.58-3.34,2.63-3.31,2.69-3.24,2.77-3.23,2.8-3.19,2.89-3.14,3-3.1,3-3.05,3.1-3,2.23-2.06,1-.88,3.24-2.91,3.31-2.89,3.34-2.85,3.42-2.82,3.43-2.8,3.52-2.74,3.55-2.73,3.64-2.67,3.69-2.63,3.75-2.61,3.83-2.54,3.91-2.51,4-2.48,4-2.38,4.16-2.37,4.22-2.29,4.36-2.25,4.44-2.16,4.53-2.1,4.69-2,4.8-2,5-1.84,5.08-1.77,5.25-1.65L588.3,135l5.66-1.42c83.76-19.5,150.66,28.09,169.06,82.83A221.1,221.1,0,0,1,770.41,244l1,5.58.82,5.47.62,5.32.44,5.24.26,5.09.08,5-.11,4.88-.27,4.77L772.8,290l-.6,4.57-.77,4.46-.94,4.37-1.09,4.25-1.25,4.18-1.41,4.06-1.56,4-1.69,3.89-1.89,3.76-2,3.71-2.17,3.6-2.29,3.51-2.44,3.4-2.6,3.35-2.72,3.23-2.88,3.16-3,3-3.15,3-3.28,2.88-3.41,2.82L728.08,366l-3.69,2.61-3.84,2.57-3.94,2.47-3,1.8.89-3.12c.4-1.46.73-2.9,1-4.31l.87-4.39L717,359c.19-1.61.31-3.18.38-4.71.07-1.7.09-3.33,0-4.93a50.51,50.51,0,0,0-.44-5.22,42.6,42.6,0,0,0-1.15-5.66,37.39,37.39,0,0,0-2.31-6.39,33,33,0,0,0-5.75-8.56,32.35,32.35,0,0,0-13.91-8.68l-.14-.09A40.68,40.68,0,0,0,683,313a49.26,49.26,0,0,0-7.44.3,54.62,54.62,0,0,0-6.17,1.07c-1.8.42-3.62,1-5.44,1.55-1.65.55-3.27,1.17-4.92,1.87s-3,1.35-4.53,2.13-2.81,1.47-4.2,2.3l-3.93,2.5q-1.85,1.26-3.68,2.66l-3.44,2.78-3.28,2.9-3.07,3-2.9,3.13-2.76,3.23-2.6,3.32-.09.13-2.37,3.27-2.39,3.46-2.3,3.5-2.25,3.54-2.2,3.59-2.12,3.6-2.1,3.65-2.05,3.66-2,3.69-2,3.71-1.95,3.71-1.92,3.77-1.89,3.76-1.86,3.77-1.83,3.81-1.81,3.8-1.8,3.84L588,411.91l-1.74,3.85-1.72,3.86-1.68,3.89-1.67,3.9-1.65,3.94-1.62,3.92-1.61,4-1.58,4-1.55,4-1.53,4-1.51,4-1.49,4-1.49,4-1.43,4-1.42,4.06-1.39,4.08L562,478l-.47,1.42-1.36,4.1-1.35,4.1-1.35,4.1-1.35,4.11L554.8,500l-1.32,4.13-1.32,4.11-1.31,4.12-1.32,4.14-1.29,4.13L547,524.75l-1.28,4.15-1.26,4.15-1.27,4.16-1.26,4.14-1.25,4.18-1.25,4.18-1.23,4.16-1.23,4.19-1.23,4.2-1.21,4.16-1.21,4.19-1.2,4.19L530.88,579l-1.19,4.21-1.18,4.19-1.18,4.22-1.17,4.21L525,600.06l-1.16,4.21-1.15,4.22-1.18,4.23L520.34,617l-1.16,4.22L518,625.39l-1.15,4.23-1.15,4.24-1.15,4.24-1.14,4.2-1.16,4.24-1.14,4.23L510,655l-1.13,4.23-1.15,4.22-1.15,4.24-1.15,4.23-1.15,4.23-1.16,4.22L502,684.59l-1.17,4.24-1.16,4.23-1.17,4.2-1.14,4.23-1.17,4.24-1.16,4.2-1.18,4.22-.47,1.74-.69,2.47-1.19,4.21-1.24,4.19L489,730.91l-1.26,4.16-1.3,4.15-1.3,4.12-1.34,4.12-1.35,4.1-1.36,4.09-1.39,4.09-1.4,4.06-1.43,4.05-1.44,4-1.45,4L472.5,780l-1.5,4-1.5,4L468,792l-1.54,4-1.55,4-1.56,4-1.6,4-1.59,4-1.61,3.93-1.63,3.94-1.64,3.92-1.65,3.9-1.67,3.91-1.68,3.89-1.71,3.89-1.7,3.89-1.72,3.85-1.75,3.86-1.74,3.86-1.76,3.85-1.78,3.83-1.79,3.83-1.8,3.81-1.81,3.84-1.84,3.79L429,881.4l-1.84,3.79L425.29,889l-1.88,3.77-1.9,3.75-1.9,3.75L417.68,904l-1.92,3.73-2,3.74-1.95,3.7-2,3.72-2,3.7-2,3.68-2,3.69-2.06,3.67-2,3.66L397.68,941l-2.08,3.65-2.11,3.62-.29.51-1.85,3.1-2.16,3.61-2.15,3.6-2.21,3.56-2.23,3.55-2.22,3.56-2.28,3.5-2.32,3.52-2.31,3.5-2.37,3.45-2.4,3.46-2.38,3.45L363.85,994l-2.47,3.4-2.48,3.38-2.54,3.37-2.56,3.37-2.59,3.31-2.61,3.31-2.61,3.31-2.7,3.27-2.71,3.26-2.73,3.23-2.79,3.2-2.78,3.21-2.85,3.15-2.88,3.16-2.89,3.14-3,3.09-3,3.11-3,3-3,3-3.09,3-3.14,3-3.16,3-3.23,2.93-3.24,2.91-3.32,2.88-3.33,2.85-3.42,2.83-3.43,2.79-3.52,2.75-3.55,2.73-3.6,2.7-3.66,2.66-3.72,2.6-3.77,2.58-3.9,2.53-3.9,2.49-4,2.43-4.09,2.4-4.18,2.32-4.29,2.27-4.37,2.21-4.52,2.11-4.65,2-4.76,2-4.94,1.87-5.2,1.71c-1.81.57-3.59,1.09-5.37,1.56-1.93.53-3.82,1-5.69,1.41-2,.44-4,.84-6,1.17-2.22.38-4.4.68-6.52.88-2.49.25-4.92.36-7.29.39a71.64,71.64,0,0,1-8.51-.39A56.44,56.44,0,0,1,156,1126.2Z">
    </path>
    <path class="cls-2"
        d="M525.12,1240.2a585.06,585.06,0,0,1-92.6,13.32c-108.66,6.38-296.58-11.6-319.82-146,23.2,100.91,138.83,105.94,242.26,80,34.84-8.73,81.62-27.27,121.52-45.66l3-1.39,3-1.41,3-1.43,3-1.42,3-1.43,3-1.45,3-1.45,3-1.47,3-1.49,3-1.48,3-1.51,3-1.52,2.94-1.52,3-1.55,2.93-1.55,2.93-1.58,2.91-1.61,2.9-1.61,2.91-1.65,2.87-1.66,2.87-1.7h0l2.82-1.71,2.85-1.72,2.86-1.74,2.85-1.71,2.85-1.73,2.84-1.76,2.83-1.73,2.84-1.76,2.86-1.75,2.83-1.76,2.81-1.77,2.85-1.78,2.82-1.76,2.83-1.79,2.82-1.79,2.81-1.8,2.83-1.79,2.81-1.8,2.8-1.81,2.82-1.82,2.8-1.81,2.81-1.81,2.8-1.84,2.8-1.84,2.8-1.83,2.79-1.84,2.8-1.84,2.78-1.87,2.79-1.84,2.79-1.87,2.79-1.85,2.76-1.88,2.78-1.9,2.78-1.88,2.77-1.88,2.77-1.91,2.76-1.9,2.77-1.89,2.77-1.91,2.74-1.93,2.76-1.92,2.75-1.94,2.75-1.92,2.75-2,2.75-1.94,2.72-2,2.76-2,2.73-1.95,2.73-2,2.74-2,2.73-2,2.72-2,2.72-2,2.71-2,2.73-2,2.71-2,2.71-2,2.72-2,2.7-2,2.7-2,2.7-2,2.7-2,2.7-2,2.68-2.06,2.69-2,2.7-2.06,2.68-2.07,2.67-2.07,2.69-2.07,2.69-2.07,2.66-2.1,2.68-2.08,2.67-2.09,2.65-2.11,2.67-2.11,2.66-2.11L751,962.6l2.66-2.11,2.64-2.13,2.67-2.14,2.64-2.14,2.64-2.15,2.64-2.14,2.65-2.16,2.64-2.15,2.64-2.15,2.63-2.17L780.1,939l2.63-2.17,2.62-2.17,2.63-2.19,2.63-2.18,2.63-2.2,2.61-2.2,2.61-2.19,2.62-2.22,2.61-2.21,2.61-2.19,2.62-2.21,2.61-2.23,2.6-2.23,2.61-2.22,2.6-2.23,2.61-2.22,2.6-2.24,2.58-2.23,2.62-2.25,2.58-2.25,2.59-2.23,2.6-2.26,2.6-2.25,2.6-2.25,2.58-2.25,2.6-2.25,2.58-2.27,2.59-2.26,2.58-2.25,2.6-2.26,2.59-2.26,2.58-2.26,2.58-2.26,2.59-2.27,2.6-2.27,2.58-2.26,2.59-2.27,2.58-2.25,2.59-2.25,2.58-2.27,2.6-2.27,2.58-2.25,2.6-2.27,2.59-2.24,2.58-2.25,2.6-2.25,2.6-2.25,2.6-2.24,2.6-2.24,2.6-2.23,2.6-2.23,2.61-2.23,2.6-2.23,2.61-2.22,2.61-2.21,2.6-2.21,2.63-2.2,2.61-2.2,2.63-2.18,2.63-2.2,2.63-2.18,2.62-2.15,2.65-2.17,2.62-2.16,2.66-2.15,2.65-2.14,2.65-2.12,2.65-2.13L960,785.7l2.67-2.09,2.67-2.1,2.69-2.07,2.68-2.08,2.67-2.07,2.69-2,2.71-2,2.7-2,2.7-2,2.73-2,2.71-2,2.73-2,2.76-2,2.72-1.94,2.76-1.95,2.74-1.91,2.76-1.91,2.79-1.89,2.77-1.88,2.77-1.86,2.82-1.84,2.78-1.85,2.81-1.81,2.82-1.8,2.81-1.78,2.85-1.79,2.82-1.76,2.85-1.72,2.87-1.73,2.84-1.69,2.87-1.68,2.89-1.7,2.88-1.63,2.9-1.64,2.92-1.62,2.9-1.58,2.93-1.61,2.94-1.55,2.93-1.54,3-1.53,3-1.49,3-1.5.79-.4,2.2-1.07,3-1.44,3-1.42,3-1.39,3-1.37,3.06-1.32,3.06-1.31,3.07-1.27,3.1-1.23,3.1-1.22,3.13-1.16,3.14-1.15,3.17-1.08,3.17-1.09,3.21-1,3.19-1,3.26-.93,3.24-.92,3.3-.85,3.28-.83,3.34-.75,3.36-.73,3.37-.66,3.4-.62,3.43-.56,3.46-.5,3.48-.46,3.53-.36,3.55-.31,3.58-.25,3.62-.16,3.67-.08,3.7,0,3.75.1,3.79.17,3.83.26c75.54,6.38,112.24,68.1,121,107.27,7.8,34.69-.7,69.28-19.31,98.44l-2.11,3.22-2.17,3.13-2.18,3-2.26,3-2.28,2.87-2.32,2.79-2.37,2.71-2.4,2.63-2.44,2.58-2.47,2.49-2.5,2.44-2.54,2.37-2.57,2.31-2.59,2.22L1263,926.3l-2.65,2.12-2.71,2.05-2.71,2-2.74,1.92-2.79,1.9-2.79,1.81-2.83,1.75-2.88,1.71L1238,943.2l-2.93,1.59-3,1.52-3,1.48-3,1.41-3,1.35-3.07,1.28-3.1,1.23-3.13,1.16-3.16,1.09-3.19,1.05-3.23,1-3.26.91-3.28.84-3.28.76,2.61-2.1,2.62-2.19,2.6-2.28,2.55-2.3,2.51-2.43,2.46-2.51,2.41-2.6,2.36-2.75,2.28-2.88,2.2-3,2.09-3.27c.72-1.2,1.36-2.38,2-3.54.67-1.35,1.24-2.67,1.75-4a38.33,38.33,0,0,0,1.46-4.54,28.35,28.35,0,0,0,.85-5.77,19.58,19.58,0,0,0-8.66-17.49,27.34,27.34,0,0,0-5-2.76,36.42,36.42,0,0,0-4.46-1.49,41.79,41.79,0,0,0-4.13-.87c-1.25-.19-2.57-.33-3.92-.42s-2.5-.16-3.79-.16l-3.65.1-3.56.29-3.49.46-3.4.58-3.34.74-3.3.84-3.22,1-3.21,1.07-3.13,1.12-3.08,1.23-3.08,1.32-3,1.38-3,1.46-2.94,1.53-2.92,1.6-2.88,1.67-1.84,1.09-1,.63-2.83,1.75-2.84,1.78-2.8,1.81-2.8,1.81-2.82,1.83-2.78,1.85-2.79,1.83-2.79,1.87-2.78,1.87-2.78,1.87-2.78,1.88-2.78,1.86-2.79,1.9-2.76,1.88-2.76,1.89-2.77,1.92-2.78,1.88-2.75,1.89-2.79,1.91-2.75,1.89-2.77,1.91-2.76,1.9-2.77,1.91-2.78,1.91-2.74,1.91-2.76,1.89-2.78,1.92-2.75,1.89-2.76,1.91-2.77,1.91-2.76,1.89-2.77,1.92-2.77,1.9-2.76,1.89-2.77,1.92-2.76,1.91-2.75,1.9-2.79,1.89-2.76,1.89-2.76,1.9-2.78,1.91-2.76,1.88-2.78,1.89-2.77,1.9-2.76,1.88-2.77,1.9L1012.6,997l-2.75,1.88-2.79,1.89-2.77,1.88-2.79,1.88-2.76,1.87-2.78,1.88-2.78,1.87-2.79,1.86-2.79,1.88-2.77,1.87-2.79,1.87-2.78,1.85-2.78,1.87-2.8,1.85-2.79,1.87-2.8,1.85-2.77,1.84-2.8,1.85-2.8,1.83-2.78,1.85-2.8,1.83-2.81,1.85-2.79,1.85-2.8,1.82-2.8,1.82-2.82,1.82-2.8,1.83-2.8,1.81-2.81,1.82-2.8,1.81-2.82,1.79-2.81,1.81-2.81,1.81-2.83,1.8-2.82,1.79-2.81,1.79-2.83,1.79-2.81,1.78-2.83,1.78-2.83,1.78-2.83,1.76-2.83,1.77-2.84,1.77-2.83,1.76-2.84,1.76-2.83,1.75-2.85,1.73-2.85,1.75-2.84,1.74-2.85,1.74-2.86,1.72-2.84,1.72-2.87,1.73-2.84,1.71-2.86,1.72-2.87,1.71-2.86,1.69-2.87,1.7-2.87,1.69-2.87,1.68-2.88,1.69-2.86,1.67-2.89,1.67-2.89,1.66-2.88,1.65-2.89,1.66-2.9,1.65-2.89,1.65-2.9,1.62-2.9,1.64-2.89,1.62-2.92,1.61-2.92,1.61-2.9,1.59-2.93,1.61-2.91,1.58-2.92,1.58-2.94,1.58-2.93,1.56-2.91,1.55-3,1.57-2.92,1.53-3,1.54-2.95,1.52-3,1.51-3,1.52-3,1.5-3,1.49-3,1.48-3,1.48-1.81.89-1.16.57-3,1.47-3,1.43-3,1.47-3,1.44-3,1.44-3,1.44-3,1.42-3,1.43-3,1.44-3,1.4-3,1.42-3,1.4-3,1.41-3,1.39-3,1.39-3,1.37-3,1.37-3,1.38-3,1.37-3,1.36-3,1.33-3,1.36-3,1.33-3,1.32-3,1.33-3.07,1.32-3,1.29-3.06,1.29-3.07,1.29-3.08,1.28-3.08,1.28-3.08,1.26-3.08,1.25-3.09,1.25-3.1,1.22-3.1,1.22-3.11,1.22-3.09,1.21-3.13,1.19-3.12,1.19-3.13,1.18-3.12,1.18-3.13,1.14-3.14,1.16-3.15,1.13-3.14,1.1-3.17,1.12-3.16,1.09-3.16,1.09-3.19,1.09-3.17,1.05-3.19,1-3.18,1-3.2,1-3.21,1-3.2,1-3.22,1-3.21,1-3.23,1-3.25.94-3.25.95-3.24.92-3.26.9-3.26.89-3.27.88-3.29.88-3.27.84-3.3.83-3.31.82-3.3.81-3.33.79-3.3.77Z">
    </path>
    <path class="cls-3"
        d="M1079.71,236.89c89.2-29.33,175.46-6.13,206.3,81.32,15.64,44.39,6.87,88.14-12.26,122.56l-2.51,4.37-2.61,4.23-2.7,4.13-2.82,4-2.91,3.95-3,3.82-3.12,3.72-3.2,3.63-3.3,3.5-3.42,3.42-3.52,3.3-3.61,3.19-3.75,3.06-3.86,2.93c-1.32,1-2.65,1.92-4,2.81s-2.77,1.8-4.15,2.64-2.86,1.71-4.28,2.49-3,1.57-4.47,2.29-3.11,1.46-4.66,2.09-3.29,1.27-4.91,1.82c-1.77.59-3.49,1.1-5.22,1.51a56.41,56.41,0,0,1-5.64,1.08,45.68,45.68,0,0,1-6.2.47c-1.09,0-2.17,0-3.23-.08l1.88-1.34c1.3-1,2.54-2,3.75-3s2.36-2.16,3.5-3.31,2.23-2.36,3.26-3.58,2-2.53,3-3.83,1.88-2.73,2.73-4.12,1.72-2.9,2.46-4.4,1.51-3.13,2.16-4.72,1.3-3.39,1.82-5.1a56.54,56.54,0,0,0,1.38-5.53,47.39,47.39,0,0,0,.8-6.14,40.35,40.35,0,0,0-.15-7.15,29.11,29.11,0,0,0-3-10.14,21.78,21.78,0,0,0-8.56-9,26.07,26.07,0,0,0-9.63-3.11,39.24,39.24,0,0,0-6.87-.25,54.19,54.19,0,0,0-6,.69c-1.42.24-2.87.55-4.38.92l-1.11.29c-1.73.44-3.48,1-5.22,1.52s-3.32,1.12-5,1.75l-4.8,2-4.64,2.13-4.48,2.26-4.37,2.39-4.27,2.51-4.16,2.62-4.1,2.7-4,2.78-3.94,2.86-3.87,2.91-3.8,3-3.77,3-3.72,3.08-3.67,3.15-3.62,3.18-3.61,3.21-3.54,3.26-3.55,3.27-3.49,3.34-3.46,3.34-3.44,3.37-3.42,3.41-3.39,3.42-3.39,3.43-3.36,3.46-3.33,3.49-3.33,3.5-3.3,3.51-3.3,3.54-3.28,3.55-3.27,3.54-3.26,3.57-3.24,3.57-3.25,3.59-3.23,3.59-3.23,3.6-3.22,3.62-1.15,1.29-2,2.33-3.21,3.61-3.22,3.6-3.23,3.62-3.23,3.6-3.22,3.6-3.23,3.59-3.23,3.59-3.23,3.61-3.23,3.58-3.23,3.6-3.25,3.58-3.24,3.58-3.25,3.57-3.23,3.6-3.25,3.59-3.25,3.57L966.23,621,963,624.57l-3.24,3.58-3.28,3.57-3.24,3.56L950,638.84l-3.26,3.58L943.44,646l-3.26,3.58-3.26,3.55-3.27,3.56-3.26,3.55-3.28,3.58-3.25,3.56-3.28,3.54-3.26,3.56L914.05,678l-3.26,3.57-3.27,3.55-3.26,3.55L901,692.24l-3.27,3.55-3.27,3.56-3.29,3.56-3.26,3.55L884.61,710l-3.27,3.54-3.27,3.55-3.28,3.55-3.27,3.56-3.27,3.54L865,731.31l-3.27,3.55-3.27,3.56L855.15,742l-3.27,3.53-3.28,3.55-3.27,3.56-3.27,3.54-3.28,3.55-3.27,3.56-3.26,3.55L829,770.38l-3.27,3.55-3.26,3.55L819.14,781l-3.27,3.57-3.28,3.54-3.25,3.56-3.28,3.54-3.27,3.56-3.28,3.55-3.27,3.55-.65.7L793,809.45,789.7,813l-3.27,3.55-3.27,3.54-3.28,3.56-3.28,3.55-3.28,3.53L770,834.29l-3.27,3.54-3.29,3.55-3.29,3.53-3.3,3.53L753.59,852l-3.3,3.52L747,859l-3.3,3.53-3.32,3.51-3.3,3.52-3.31,3.51-3.32,3.5-3.32,3.5-3.33,3.49-3.32,3.51-3.32,3.48L713.8,894l-3.32,3.48L707.11,901l-3.35,3.47-3.36,3.46L697,911.38l-3.37,3.46-3.37,3.44-3.38,3.45-3.39,3.44-3.4,3.41L676.74,932l-3.42,3.4-3.42,3.4-3.42,3.39-3.43,3.41L659.6,949l-3.43,3.37-3.46,3.36-3.46,3.35-3.48,3.34-3.47,3.33-3.48,3.34-3.5,3.32-3.5,3.3L628.3,979l-3.53,3.3-3.55,3.27-3.55,3.26L614.12,992l-3.58,3.25L607,998.52l-3.59,3.21-3.62,3.2-3.62,3.18-3.62,3.18-3.64,3.17-3.67,3.14-3.67,3.13-3.68,3.12-3.7,3.1-3.72,3.1-3.74,3.06-3.74,3.06-3.76,3-3.78,3-3.79,3-3.83,3-3.84,3-3.86,2.94-3.88,2.93-3.88,2.9-3.92,2.87-3.93,2.86-4,2.83-4,2.8-4,2.78-4,2.76-4.05,2.73-4.07,2.7-4.1,2.68-4.15,2.65L488,1090.2l-4.2,2.59-4.22,2.53-4.25,2.55-4.3,2.47-4.33,2.43-4.36,2.4-4.4,2.39-3.82,2-.62.31-4.48,2.28-4.46,2.3-4.49,2.26L435.5,1119,431,1121.2l-4.57,2.18-4.57,2.17-4.6,2.16-4.62,2.13L408,1132l-4.67,2.07-4.69,2.07-4.71,2-4.77,2-4.75,2-4.83,1.93-4.81,1.92-4.86,1.88-4.89,1.87-4.92,1.82-4.95,1.78-5,1.75-5,1.71-5.07,1.67-5.1,1.64-5.15,1.58-5.18,1.53-5.26,1.48-5.27,1.45-5.35,1.37-5.41,1.32-5.45,1.24-5.53,1.2-5.57,1.11-5.67,1-5.74,1-5.83.86c-118.62,16.49-155.82-46.88-152.17-76.43,2.27,35.55,41.39,62.56,115.55,38l5-1.73,4.92-1.81,4.85-1.88,4.79-1.95,4.72-2,4.66-2.1,4.6-2.15,4.55-2.2,1.14-.56,3.37-1.71,4.43-2.33,4.4-2.36,4.36-2.42,4.3-2.46,4.26-2.52,4.22-2.55,4.19-2.6,4.15-2.62,4.11-2.67,4.09-2.69,4.06-2.75,4-2.77,4-2.8,4-2.83,3.93-2.85,3.91-2.89,3.87-2.92,3.86-2.94,3.83-3,3.79-3,3.78-3,3.76-3,3.74-3.06,3.71-3.1,3.68-3.11,3.68-3.14,3.65-3.15,3.62-3.21,3.6-3.18,3.59-3.23,3.56-3.26,3.53-3.26,3.54-3.29,3.48-3.31,3.48-3.34,3.48-3.35,3.42-3.38,3.43-3.4,3.39-3.42,3.38-3.45,1.18-1.22,2.17-2.27,3.33-3.48,3.3-3.51L442,986l3.27-3.56,3.25-3.58,3.24-3.57,3.2-3.62,3.22-3.62,3.19-3.64,3.17-3.67,3.16-3.67,3.14-3.69,3.15-3.69,3.12-3.72,3.11-3.71,3.09-3.74,3.08-3.75L489.5,931l3.06-3.78,3.06-3.77,3.06-3.79,3-3.79,3-3.81,3-3.81,3-3.83,3-3.81,3-3.85,3-3.85,3-3.85,3-3.86,3-3.88,3-3.88,2.95-3.88,3-3.88,2.94-3.9,2.93-3.9,2.95-3.9,2.92-3.91,2.94-3.92,2.91-3.91,2.93-3.91,2.91-3.94,2.92-3.93,2.9-4,2.9-3.94,2.88-4,2.9-3.94,2.89-4,2.89-4,2.88-4,2.89-4,2.87-4,2.87-4,2.89-4,2.86-4,2.87-4,2.86-4,2.85-4,2.86-4,2.86-4,2.84-4,2.86-4,2.84-4,2.85-4,2.85-4,2.84-4,2.85-4,2.84-4,2.83-4,2.83-4,2.84-4,2.84-4,2.83-4,2.83-4,2.83-4,2.83-4,2.84-4,2.83-4,2.83-4,2.83-4,2.81-4,2.83-4,2.83-4,2.82-4,2.83-4,2.82-4,2.83-4,2.83-4,2.81-4,2.85-4,2.81-4,2.84-4,2.83-4,2.83-4,2.83-4,2.83-4,2.82-4,2.83-4,2.83-4,2.83-4,2.84-4,2.83-4,2.85-4,2.82-4,2.85-4,2.84-4,2.84-4,2.83-4,2.86-4,2.84-4,2.84-4,2.86-4,2.86-4,2.86-4,2.87-4,2.85-4,2.86-4,2.87-4,2.88-4,2.85-4,2.88-4,2.88-4,2.87-4,2.89-3.95,2.88-4,2.9-4,2.9-3.93,2.89-3.95,2.9-3.94,2.92-3.94,2.9-3.92,2.91-3.93,2.93-3.92,2.93-3.94,2.93-3.91,2.93-3.9,2.94-3.91,2.94-3.9,3-3.88,2.94-3.9,3-3.87,3-3.86,3-3.87,3-3.85,3-3.86,3-3.84,3-3.83,3-3.83,3-3.83,3-3.81,3-3.81,3-3.78,3.05-3.78,3.07-3.77,3.07-3.78,3.08-3.74,3.1-3.75,3.1-3.73,3.12-3.71,3.13-3.7,3.14-3.71,3.14-3.67,3.17-3.68,3.18-3.63,3.19-3.65,3.22-3.6,3.21-3.61,3.26-3.57,3.26-3.56,3.26-3.56,3.3-3.52,3.32-3.52,3.36-3.46,3.36-3.47.12-.12,3.28-3.29,3.45-3.38,3.47-3.34,3.53-3.29,3.55-3.24,3.62-3.19,3.65-3.16,3.69-3.1,3.76-3.06,3.78-3,3.84-3,3.88-2.9,3.91-2.87,4-2.82,4-2.77,4.07-2.73,4.12-2.65,4.16-2.62,4.21-2.55,4.26-2.52,4.34-2.44,4.38-2.39,4.43-2.35,4.5-2.27,4.55-2.21,4.6-2.15,4.67-2.07,4.74-2,4.81-2,4.87-1.88,5-1.77Z">
    </path>
</svg>