<svg id="Ebene_1" xmlns="http://www.w3.org/2000/svg" xmlns:xlink="http://www.w3.org/1999/xlink" viewBox="0 0 1376 690"
    style="enable-background:new 0 0 1376 690">
    <style>
        .st0 {
            fill: #fff
        }
    </style>
    <g>
        <path class="st0"
            d="M41.27 275.86c0-39.43 12.39-72.33 37.18-98.7 24.79-26.36 55.09-39.55 90.92-39.55 27.26.0 50.36 10.48 69.29 31.43 2.7 2.93 2.37 6.08-1.01 9.46l-13.52 12.84c-3.38 3.38-6.88 3.27-10.48-.34-5.41-5.63-12.28-10.36-20.62-14.2-8.34-3.83-16.9-5.75-25.69-5.75-22.98.0-43.32 10.03-61.01 30.08-17.69 20.06-26.53 43.38-26.53 69.97.0 20.96 5.58 38.7 16.73 53.24 11.15 14.53 25.74 21.8 43.77 21.8 15.77.0 30.53-3.72 44.28-11.15l5.41-37.86h-27.72c-1.58.0-2.87-.56-3.89-1.69-1.01-1.12-1.3-2.59-.84-4.39l2.7-19.6c.45-4.28 2.7-6.42 6.76-6.42h56.45c3.15.0 4.73 1.92 4.73 5.75l-11.15 82.47c-.45 2.25-1.58 4.06-3.38 5.41-2.48 1.58-6.03 3.61-10.65 6.08-4.62 2.48-13.75 5.8-27.38 9.97-13.64 4.17-26.99 6.25-40.05 6.25-27.27.0-49.8-10.14-67.6-30.42C50.17 330.28 41.27 305.38 41.27 275.86z">
        </path>
        <path class="st0"
            d="M270.66 371.18l16.9-122.36c.45-4.28 2.59-6.42 6.42-6.42h10.14c2.48.0 4.06 1.58 4.73 4.73l2.37 11.49 1.69-1.69c1.12-1.12 2.03-2.08 2.7-2.87.68-.79 1.86-1.86 3.55-3.21s3.21-2.48 4.56-3.38 3.04-1.91 5.07-3.04c2.03-1.12 4.06-2.08 6.08-2.87 2.03-.79 4.28-1.4 6.76-1.86 2.48-.45 4.95-.68 7.44-.68 8.56.0 14.98 1.47 19.27 4.39 2.7 1.81 2.93 4.39.68 7.77l-9.46 16.56c-2.03 2.93-4.62 3.95-7.77 3.04-4.51-1.12-8.23-1.69-11.15-1.69-8.11.0-16.79 5.41-26.03 16.22l-12.17 85.85c-.45 4.28-3.83 6.42-10.14 6.42h-16.9c-1.58.0-2.82-.62-3.72-1.86C270.77 374.5 270.43 372.98 270.66 371.18z">
        </path>
        <path class="st0"
            d="M514.09 248.82 498.2 371.18c-.23 1.58-1.01 3.04-2.37 4.39-1.35 1.35-2.82 2.03-4.39 2.03h-11.15c-2.7.0-4.17-1.57-4.39-4.73l-1.01-10.14c-12.17 12.17-26.03 18.25-41.57 18.25-13.97.0-25.58-5.97-34.81-17.91-9.24-11.94-13.86-26.58-13.86-43.94.0-21.4 6.7-40.11 20.11-56.11 13.4-16 29.35-24 47.83-24 6.08.0 11.94 1.24 17.58 3.72 5.63 2.48 9.69 4.79 12.17 6.93 2.48 2.14 4.5 4.11 6.08 5.92l4.39-8.45c1.57-3.15 3.72-4.73 6.42-4.73h10.14c1.57.0 2.81.62 3.72 1.86C513.97 245.5 514.31 247.02 514.09 248.82zm-41.58 82.14 5.75-47.32c-.68-1.12-1.69-2.54-3.04-4.23s-4.39-3.94-9.13-6.76c-4.73-2.81-9.69-4.22-14.87-4.22-10.59.0-18.99 4.79-25.18 14.36-6.2 9.58-9.29 21.58-9.29 36 0 9.69 2.25 17.63 6.76 23.83 4.5 6.2 10.7 9.29 18.59 9.29 4.95.0 9.91-1.63 14.87-4.9 4.95-3.26 8.56-6.31 10.82-9.13C470.03 335.07 471.61 332.76 472.51 330.96z">
        </path>
        <path class="st0"
            d="M831.25 372.87l-14.2 99.71c-.68 4.28-3.16 6.42-7.44 6.42h-20.28c-1.57.0-2.87-.62-3.89-1.86-1.01-1.24-1.4-2.76-1.18-4.56l31.43-223.76c.45-4.28 2.7-6.42 6.76-6.42h10.48c2.48.0 4.06 1.47 4.73 4.39l2.03 8.79c2.93-3.15 8.17-6.7 15.72-10.65 7.55-3.94 15.72-5.92 24.5-5.92 14.64.0 26.53 5.86 35.66 17.58 9.13 11.72 13.69 26.14 13.69 43.26.0 22.54-6.88 41.69-20.62 57.46-13.75 15.77-30.42 23.66-50.02 23.66C847.36 380.98 838.23 378.28 831.25 372.87zm3.38-31.1c5.41 6.76 13.4 10.14 24 10.14 10.59.0 19.71-4.78 27.38-14.37 7.66-9.57 11.49-21.12 11.49-34.65.0-9.69-2.26-17.86-6.76-24.5-4.51-6.64-10.71-9.97-18.59-9.97-4.96.0-9.92 1.35-14.87 4.06-4.96 2.7-8.51 5.19-10.65 7.44-2.14 2.26-3.67 4.06-4.56 5.41L834.63 341.77z">
        </path>
        <path class="st0"
            d="M964.25 320.48c0-22.08 7.04-41.18 21.12-57.29s32.16-24.17 54.25-24.17c13.07.0 23.88 3.38 32.45 10.14 8.56 6.76 12.84 16.22 12.84 28.39.0 9.02-2.99 16.68-8.96 22.98-5.97 6.31-13.47 10.65-22.48 13.01-9.01 2.37-18.76 4.06-29.24 5.07s-20.11.73-28.9-.85c-.9 9.69 1.01 17.91 5.75 24.67 4.73 6.76 11.6 10.14 20.62 10.14 9.01.0 18.14-3.15 27.38-9.46 3.83-2.48 6.53-2.59 8.11-.34l9.12 12.51c2.48 3.16 1.91 6.08-1.69 8.79-13.97 11.27-29.86 16.9-47.66 16.9-16 0-28.79-5.8-38.36-17.41C969.04 351.97 964.25 337.6 964.25 320.48zm36.17-25.35c36.05 3.16 54.08-2.14 54.08-15.89.0-4.28-1.81-7.72-5.41-10.31-3.61-2.59-7.89-3.89-12.84-3.89-9.01.0-16.73 2.82-23.15 8.45C1006.67 279.13 1002.45 286.34 1000.42 295.13z">
        </path>
        <path class="st0"
            d="M1114.76 371.18l16.9-122.36c.45-4.28 2.59-6.42 6.42-6.42h10.14c2.48.0 4.06 1.58 4.73 4.73l2.37 11.49 1.69-1.69c1.12-1.12 2.03-2.08 2.7-2.87.68-.79 1.86-1.86 3.55-3.21s3.21-2.48 4.56-3.38 3.04-1.91 5.07-3.04c2.03-1.12 4.05-2.08 6.08-2.87s4.28-1.4 6.76-1.86c2.48-.45 4.95-.68 7.44-.68 8.56.0 14.98 1.47 19.27 4.39 2.71 1.81 2.93 4.39.68 7.77l-9.46 16.56c-2.03 2.93-4.62 3.95-7.77 3.04-4.51-1.12-8.23-1.69-11.15-1.69-8.11.0-16.79 5.41-26.03 16.22l-12.17 85.85c-.45 4.28-3.83 6.42-10.14 6.42h-16.9c-1.58.0-2.82-.62-3.72-1.86C1114.87 374.5 1114.53 372.98 1114.76 371.18z">
        </path>
        <path class="st0"
            d="M1252.46 340.76l9.8-70.3h-14.87c-1.58.0-2.93-.62-4.05-1.86-1.13-1.24-1.47-2.76-1.01-4.56l2.37-15.21c.68-4.28 2.81-6.42 6.42-6.42h15.21l5.07-37.52c.22-1.57 1.01-3.04 2.37-4.39 1.35-1.35 2.81-2.03 4.39-2.03l20.62-.34c1.57.0 2.81.62 3.72 1.86.9 1.24 1.24 2.76 1.01 4.56l-5.41 37.86h29.07c4.06.0 5.75 2.14 5.07 6.42l-2.37 15.21c-.9 4.28-3.04 6.42-6.42 6.42h-29.41l-9.13 66.59c-1.35 9.02 1.24 13.52 7.77 13.52 4.28.0 10.14-2.03 17.58-6.08 3.38-1.8 5.52-.79 6.42 3.04l3.72 15.21c.9 3.16-.45 5.86-4.06 8.11-2.48 1.58-7.72 3.66-15.72 6.25s-15.16 3.89-21.46 3.89C1257.53 380.98 1248.62 367.58 1252.46 340.76z">
        </path>
        <path class="st0"
            d="M876.35 98.61c2.18 8.9-10.31 17.8-15.19 25.09-12.71 16.63-27.05 32.04-41.38 47.45-31.53 34.17-60.7 68.87-93.13 101.15l-21.62 21.52c-7.87 8.7-12.21 12.75-11.53 22.35.69 20.52 12.3 42.48 16.84 62.83 8.27 40.09 13.01 84.84 24.9 121.56-.23-3.2-.5-7.04 1.8-7.14 7.06 1.61 17.55 40.32 21.13 47.23 7.16 13.81 14.37 28.26 26.78 39.91 9.97 9.83 23.69 18.21 40.57 16.81 17.7-.79 41.64-11.5 53.17-22.93 3.62-3.38 7.46-14.47 14.57-12.21 5.52 1.68 5.53 12.6 5.08 17.11-2.8 14.9-22.66 28.63-33.47 39.39-35.15 37.54-90.63 49.66-134.75 15.67-26.95-20.63-42.81-48.18-54.1-76.58-4.76-12.63-6.45-25.4-9.67-38.1-.95-2.53-10.52-17.51-9.2-20.78.05.64 1.77 3.13 2.63 4.38l-2.27-10.17c1.32 7.65-4.08-3.03-4.89-3.64-2.63-4.38-2.99-9.5-4.04-13.31-3.04-10.14-5.31-20.32-7.58-30.49-4.54-20.35-12.84-39.25-17.33-58.96-74.09 75.9-144.06 155.46-225.45 226.54-11.63 10.15-23.21 20.95-36.51 29.25-8.14 4.86-16.78 13.6-21.46 2.24-6.48-15.12 21.56-44 30.74-55.97 9.86-13.29 28.91-27.63 36.41-41.45 2.76-4.62 2.44-9.1 5.92-14.4 6.29-9.27 14.92-18.01 22.03-26.68 14.2-17.33 30.03-33.46 45-50.83 24.2-28.7 52.29-56.94 73.27-87.42 12.57-18.55 31.44-35.45 48.04-51.61 10.04-10.73 9.68-15.85 7.18-29.22-1.46-9.57-4.45-19.07-6.63-27.96-4.63-21.63-7.73-43.33-13.08-64.29-5.45-22.24-13.97-44.33-17.07-66.03-1.27-7.01 1.49-11.63-.51-17.96-1.14-5.09-6.26-11.93-8.93-16.94-7.39-17.01-14.14-25.06-30.31-35.25-12.14-7.81-2.45-12.74 10.4-16.52 18.83-6.62 31.09-7.81 45.72 2.45-.86-1.25-1.72-2.49-1.81-3.77.63-1.96 34.83 22.85 28.22 27.64.0.0-10.06-11.11-11.64-11.68 14.22 15.42 24.74 32.93 33.08 52.47-1.09-4.45-2.04-6.97-2.04-6.97 1.54-.07 22.04 60.03 23.22 65.76 6.22 22.2 11.71 45.08 17.21 67.95 25.42-33.25 54.82-64.76 84.22-96.26 20.04-22.09 39.94-46.11 64.05-65.17 9.5-7.49 20.14-9.89 32.95-3.4C861.43 73.59 884.49 93.75 876.35 98.61zM671.38 233.68c.91 1.89 1 3.17 1.09 4.45C673.92 236.78 673.06 235.53 671.38 233.68zm39.08 201.21-.27-3.84c-2.18-8.89-5.9-17.72-8.89-27.22 6.23 33.12 7.38 70.96 18.09 101.96 10.03 32.31 37.5 92.74 87.26 97.58-35.9-5.46-57.21-44.33-67.5-69.56C726.17 503.56 718.22 467.95 710.46 434.89z">
        </path>
    </g>
</svg>